<?xml version="1.0"?>
<svg xmlns="http://www.w3.org/2000/svg" xmlns:xlink="http://www.w3.org/1999/xlink" version="1.1" id="Capa_1" x="0px" y="0px" viewBox="0 0 477.867 477.867" style="enable-background:new 0 0 477.867 477.867;" xml:space="preserve" width="512px" height="512px" class=""><g><g>
	<g>
		<circle cx="153.6" cy="256" r="51.2" data-original="#000000" class="active-path" data-old_color="#000000" fill="#1A73E8"/>
	</g>
</g><g>
	<g>
		<path d="M426.667,0H51.2C22.923,0,0,22.923,0,51.2v375.467c0,28.277,22.923,51.2,51.2,51.2h375.467    c28.277,0,51.2-22.923,51.2-51.2V51.2C477.867,22.923,454.944,0,426.667,0z M443.733,334.268l-107.401-107.4    c-6.664-6.663-17.468-6.663-24.132,0L170.667,368.401l-56.201-56.201c-6.664-6.663-17.468-6.663-24.132,0l-56.201,56.201V170.667    h409.6V334.268z M443.733,136.533h-409.6V102.4h409.6V136.533z M443.733,68.267h-409.6V51.2c0-9.426,7.641-17.067,17.067-17.067    h375.467c9.426,0,17.067,7.641,17.067,17.067V68.267z" data-original="#000000" class="active-path" data-old_color="#000000" fill="#1A73E8"/>
	</g>
</g></g> </svg>
