<?xml version="1.0"?>
<svg xmlns="http://www.w3.org/2000/svg" id="Layer_1" enable-background="new 0 0 511.999 511.999" height="512px" viewBox="0 0 511.999 511.999" width="512px"><g><g clip-rule="evenodd" fill-rule="evenodd"><path d="m397.263 181.258c0-77.893-63.37-141.264-141.263-141.264-77.894 0-141.265 63.371-141.265 141.264s63.371 141.263 141.265 141.263c77.893 0 141.263-63.371 141.263-141.263zm-262.528 0c0-66.865 54.399-121.264 121.265-121.264 66.864 0 121.263 54.398 121.263 121.264 0 66.865-54.398 121.263-121.263 121.263s-121.265-54.398-121.265-121.263z" data-original="#000000" class="active-path" data-old_color="#000000" fill="#FFFFFF"/><path d="m335.298 405.242c11.208-12.125 21.991-25.164 31.515-37.928 47.011-63.006 73.973-129.028 73.973-181.137 0-48.798-20.27-96.978-55.611-132.185-34.97-34.836-80.585-53.992-128.452-53.992-.455 0-.916 0-1.372 0-47.938 0-93.56 19.158-128.525 53.991-35.342 35.207-55.611 83.387-55.611 132.186 0 52.109 26.962 118.13 73.973 181.137 9.523 12.763 20.306 25.803 31.514 37.927-22.714 11.409-35.479 27.422-35.479 45.098 0 17.809 12.88 33.968 36.267 45.499 21.139 10.422 49.021 16.162 78.512 16.162s57.374-5.74 78.513-16.162c23.387-11.531 36.267-27.689 36.267-45.499-.004-17.667-12.772-33.687-35.484-45.097zm-244.084-219.065c0-43.52 18.124-86.535 49.726-118.017 31.191-31.073 71.799-48.16 114.489-48.16h1.216c42.611 0 83.225 17.09 114.415 48.161 31.602 31.481 49.726 74.497 49.726 118.016 0 47.89-25.515 109.552-70.003 169.177-43.257 57.976-82.131 84.985-94.783 84.985s-51.526-27.01-94.783-84.985c-44.488-59.625-70.003-121.288-70.003-169.177zm164.785 305.822c-55.854 0-94.778-21.956-94.778-41.66 0-10.667 11.473-21.893 30.263-29.909 23.708 23.046 47.693 39.909 64.515 39.909s40.808-16.864 64.517-39.91c18.784 8.015 30.263 19.252 30.263 29.91-.001 19.704-38.925 41.66-94.78 41.66z" data-original="#000000" class="active-path" data-old_color="#000000" fill="#FFFFFF"/><path d="m302.345 255.312c6.604-1.153 11.022-7.441 9.87-14.045l-7.52-43.042 30.963-29.995c2.079-1.841 3.54-4.401 3.962-7.365.943-6.63-3.667-12.77-10.296-13.713l-43.272-6.151-19.161-39.128c-1.136-2.365-3.045-4.378-5.584-5.62-6.001-2.934-13.245-.449-16.18 5.552l-19.193 39.196-43.272 6.151.002.013c-2.564.363-5.031 1.546-6.977 3.546-4.664 4.795-4.558 12.464.237 17.129l31.366 30.385-7.52 43.042.019.003c-.447 2.55-.085 5.263 1.215 7.731 3.118 5.922 10.448 8.195 16.37 5.077l38.619-20.457 37.999 20.128c2.417 1.46 5.352 2.087 8.353 1.563z" data-original="#000000" class="active-path" data-old_color="#000000" fill="#FFFFFF"/></g></g> </svg>
